HWT Etta-WestStreamer.ufo
<glyph name="hyphen" format="2">
  <advance width="280"/>
  <unicode hex="002D"/>
  <outline>
    <contour>
      <point x="-5" y="-213" type="line"/>
      <point x="285" y="-213" type="line"/>
      <point x="285" y="920" type="line"/>
      <point x="-5" y="920" type="line"/>
    </contour>
  </outline>
</glyph>
<glyph name="zero" format="2">
  <advance width="664"/>
  <unicode hex="0030"/>
  <outline>
    <contour>
      <point x="-5" y="-213" type="line"/>
      <point x="669" y="-213" type="line"/>
      <point x="669" y="920" type="line"/>
      <point x="-5" y="920" type="line"/>
    </contour>
  </outline>
</glyph>
<glyph name="one" format="2">
  <advance width="427"/>
  <unicode hex="0031"/>
  <outline>
    <contour>
      <point x="-5" y="-213" type="line"/>
      <point x="432" y="-213" type="line"/>
      <point x="432" y="920" type="line"/>
      <point x="-5" y="920" type="line"/>
    </contour>
  </outline>
</glyph>
<glyph name="at" format="2">
  <advance width="547"/>
  <unicode hex="0040"/>
  <outline>
    <contour>
      <point x="-5" y="-213" type="line"/>
      <point x="552" y="-213" type="line"/>
      <point x="552" y="920" type="line"/>
      <point x="-5" y="920" type="line"/>
    </contour>
  </outline>
</glyph>
<glyph name="B" format="2">
  <advance width="670"/>
  <unicode hex="0042"/>
  <outline>
    <contour>
      <point x="-5" y="-213" type="line"/>
      <point x="675" y="-213" type="line"/>
      <point x="675" y="920" type="line"/>
      <point x="-5" y="920" type="line"/>
    </contour>
  </outline>
</glyph>
<glyph name="F" format="2">
  <advance width="543"/>
  <unicode hex="0046"/>
  <outline>
    <contour>
      <point x="-5" y="-213" type="line"/>
      <point x="548" y="-213" type="line"/>
      <point x="548" y="920" type="line"/>
      <point x="-5" y="920" type="line"/>
    </contour>
  </outline>
</glyph>
<glyph name="K" format="2">
  <advance width="650"/>
  <unicode hex="004B"/>
  <outline>
    <contour>
      <point x="-5" y="-213" type="line"/>
      <point x="655" y="-213" type="line"/>
      <point x="655" y="920" type="line"/>
      <point x="-5" y="920" type="line"/>
    </contour>
  </outline>
</glyph>
<glyph name="P" format="2">
  <advance width="624"/>
  <unicode hex="0050"/>
  <outline>
    <contour>
      <point x="-5" y="-213" type="line"/>
      <point x="629" y="-213" type="line"/>
      <point x="629" y="920" type="line"/>
      <point x="-5" y="920" type="line"/>
    </contour>
  </outline>
</glyph>
<glyph name="R" format="2">
  <advance width="647"/>
  <unicode hex="0052"/>
  <outline>
    <contour>
      <point x="-5" y="-213" type="line"/>
      <point x="652" y="-213" type="line"/>
      <point x="652" y="920" type="line"/>
      <point x="-5" y="920" type="line"/>
    </contour>
  </outline>
</glyph>
<glyph name="b" format="2">
  <advance width="670"/>
  <unicode hex="0062"/>
  <outline>
    <contour>
      <point x="-5" y="-213" type="line"/>
      <point x="675" y="-213" type="line"/>
      <point x="675" y="920" type="line"/>
      <point x="-5" y="920" type="line"/>
    </contour>
  </outline>
</glyph>
<glyph name="f" format="2">
  <advance width="543"/>
  <unicode hex="0066"/>
  <outline>
    <contour>
      <point x="-5" y="-213" type="line"/>
      <point x="548" y="-213" type="line"/>
      <point x="548" y="920" type="line"/>
      <point x="-5" y="920" type="line"/>
    </contour>
  </outline>
</glyph>
<glyph name="z" format="2">
  <advance width="523"/>
  <unicode hex="007A"/>
  <outline>
    <contour>
      <point x="-5" y="-213" type="line"/>
      <point x="528" y="-213" type="line"/>
      <point x="528" y="920" type="line"/>
      <point x="-5" y="920" type="line"/>
    </contour>
  </outline>
</glyph>
<glyph name="bar" format="2">
  <advance width="160"/>
  <unicode hex="007C"/>
  <outline>
    <contour>
      <point x="-5" y="-213" type="line"/>
      <point x="165" y="-213" type="line"/>
      <point x="165" y="920" type="line"/>
      <point x="-5" y="920" type="line"/>
    </contour>
  </outline>
</glyph>
<glyph name="nbspace" format="2">
  <advance width="150"/>
  <unicode hex="00A0"/>
  <outline>
    <contour>
      <point x="-5" y="-213" type="line"/>
      <point x="155" y="-213" type="line"/>
      <point x="155" y="920" type="line"/>
      <point x="-5" y="920" type="line"/>
    </contour>
  </outline>
</glyph>
<glyph name="exclamdown" format="2">
  <advance width="250"/>
  <unicode hex="00A1"/>
  <outline>
    <contour>
      <point x="-5" y="-213" type="line"/>
      <point x="255" y="-213" type="line"/>
      <point x="255" y="920" type="line"/>
      <point x="-5" y="920" type="line"/>
    </contour>
  </outline>
</glyph>
<glyph name="periodcentered" format="2">
  <advance width="230"/>
  <unicode hex="00B7"/>
  <outline>
    <contour>
      <point x="-5" y="-213" type="line"/>
      <point x="235" y="-213" type="line"/>
      <point x="235" y="920" type="line"/>
      <point x="-5" y="920" type="line"/>
    </contour>
  </outline>
</glyph>
<glyph name="ordmasculine" format="2">
  <advance width="268"/>
  <unicode hex="00BA"/>
  <outline>
    <contour>
      <point x="-5" y="-213" type="line"/>
      <point x="273" y="-213" type="line"/>
      <point x="273" y="920" type="line"/>
      <point x="-5" y="920" type="line"/>
    </contour>
  </outline>
</glyph>
<glyph name="guillemetright" format="2">
  <advance width="500"/>
  <unicode hex="00BB"/>
  <outline>
    <contour>
      <point x="-5" y="-213" type="line"/>
      <point x="505" y="-213" type="line"/>
      <point x="505" y="920" type="line"/>
      <point x="-5" y="920" type="line"/>
    </contour>
  </outline>
</glyph>
<glyph name="AE" format="2">
  <advance width="893"/>
  <unicode hex="00C6"/>
  <outline>
    <contour>
      <point x="-5" y="-213" type="line"/>
      <point x="898" y="-213" type="line"/>
      <point x="898" y="920" type="line"/>
      <point x="-5" y="920" type="line"/>
    </contour>
  </outline>
</glyph>
<glyph name="aacute" format="2">
  <advance width="705"/>
  <unicode hex="00E1"/>
  <outline>
    <contour>
      <point x="-5" y="-213" type="line"/>
      <point x="710" y="-213" type="line"/>
      <point x="710" y="920" type="line"/>
      <point x="-5" y="920" type="line"/>
    </contour>
  </outline>
</glyph>
<glyph name="Cdotaccent" format="2">
  <advance width="643"/>
  <unicode hex="010A"/>
  <outline>
    <contour>
      <point x="-5" y="-213" type="line"/>
      <point x="648" y="-213" type="line"/>
      <point x="648" y="920" type="line"/>
      <point x="-5" y="920" type="line"/>
    </contour>
  </outline>
</glyph>
<glyph name="ccaron" format="2">
  <advance width="643"/>
  <unicode hex="010D"/>
  <outline>
    <contour>
      <point x="-5" y="-213" type="line"/>
      <point x="648" y="-213" type="line"/>
      <point x="648" y="920" type="line"/>
      <point x="-5" y="920" type="line"/>
    </contour>
  </outline>
</glyph>
<glyph name="Dcroat" format="2">
  <advance width="721"/>
  <unicode hex="0110"/>
  <outline>
    <contour>
      <point x="-5" y="-213" type="line"/>
      <point x="726" y="-213" type="line"/>
      <point x="726" y="920" type="line"/>
      <point x="-5" y="920" type="line"/>
    </contour>
  </outline>
</glyph>
<glyph name="lcaron" format="2">
  <advance width="542"/>
  <unicode hex="013E"/>
  <outline>
    <contour>
      <point x="-5" y="-213" type="line"/>
      <point x="547" y="-213" type="line"/>
      <point x="547" y="920" type="line"/>
      <point x="-5" y="920" type="line"/>
    </contour>
  </outline>
</glyph>
<glyph name="rcaron" format="2">
  <advance width="647"/>
  <unicode hex="0159"/>
  <outline>
    <contour>
      <point x="-5" y="-213" type="line"/>
      <point x="652" y="-213" type="line"/>
      <point x="652" y="920" type="line"/>
      <point x="-5" y="920" type="line"/>
    </contour>
  </outline>
</glyph>
<glyph name="tcaron" format="2">
  <advance width="548"/>
  <unicode hex="0165"/>
  <outline>
    <contour>
      <point x="-5" y="-213" type="line"/>
      <point x="553" y="-213" type="line"/>
      <point x="553" y="920" type="line"/>
      <point x="-5" y="920" type="line"/>
    </contour>
  </outline>
</glyph>
<glyph name="zacute" format="2">
  <advance width="523"/>
  <unicode hex="017A"/>
  <outline>
    <contour>
      <point x="-5" y="-213" type="line"/>
      <point x="528" y="-213" type="line"/>
      <point x="528" y="920" type="line"/>
      <point x="-5" y="920" type="line"/>
    </contour>
  </outline>
</glyph>
<glyph name="Scommaaccent" format="2">
  <advance width="489"/>
  <unicode hex="0218"/>
  <outline>
    <contour>
      <point x="-5" y="-213" type="line"/>
      <point x="494" y="-213" type="line"/>
      <point x="494" y="920" type="line"/>
      <point x="-5" y="920" type="line"/>
    </contour>
  </outline>
</glyph>
<glyph name="circumflex" format="2">
  <advance width="350"/>
  <unicode hex="02C6"/>
  <outline>
    <contour>
      <point x="-5" y="-213" type="line"/>
      <point x="355" y="-213" type="line"/>
      <point x="355" y="920" type="line"/>
      <point x="-5" y="920" type="line"/>
    </contour>
  </outline>
</glyph>
<glyph name="circumflexcomb" format="2">
	<advance width="0"/>
	<unicode hex="0302"/>
	<anchor x="151" y="700" name="_top"/>
	<anchor x="151" y="870" name="top"/>
	<outline>
		<contour>
			<point x="30" y="760" type="line"/>
			<point x="40" y="760" type="line" smooth="yes"/>
			<point x="85" y="760"/>
			<point x="123" y="784"/>
			<point x="139" y="824" type="curve" smooth="yes"/>
			<point x="144" y="836"/>
			<point x="146" y="841"/>
			<point x="151" y="841" type="curve" smooth="yes"/>
			<point x="156" y="841"/>
			<point x="158" y="836"/>
			<point x="163" y="824" type="curve" smooth="yes"/>
			<point x="179" y="784"/>
			<point x="217" y="760"/>
			<point x="262" y="760" type="curve" smooth="yes"/>
			<point x="272" y="760" type="line"/>
			<point x="272" y="810" type="line"/>
			<point x="264" y="810" type="line" smooth="yes"/>
			<point x="204" y="810"/>
			<point x="210" y="900"/>
			<point x="151" y="900" type="curve" smooth="yes"/>
			<point x="92" y="900"/>
			<point x="98" y="810"/>
			<point x="38" y="810" type="curve" smooth="yes"/>
			<point x="30" y="810" type="line"/>
		</contour>
	</outline>
</glyph>
<glyph name="ringcomb" format="2">
	<advance width="0"/>
	<unicode hex="030A"/>
	<anchor x="140" y="700" name="_top"/>
	<anchor x="140" y="900" name="top"/>
	<outline>
		<contour>
			<point x="140" y="680" type="curve" smooth="yes"/>
			<point x="203" y="680"/>
			<point x="250" y="725"/>
			<point x="250" y="790" type="curve" smooth="yes"/>
			<point x="250" y="855"/>
			<point x="203" y="900"/>
			<point x="140" y="900" type="curve" smooth="yes"/>
			<point x="75" y="900"/>
			<point x="30" y="855"/>
			<point x="30" y="790" type="curve" smooth="yes"/>
			<point x="30" y="725"/>
			<point x="75" y="680"/>
		</contour>
		<contour>
			<point x="140" y="730" type="curve" smooth="yes"/>
			<point x="101" y="730"/>
			<point x="80" y="752"/>
			<point x="80" y="790" type="curve" smooth="yes"/>
			<point x="80" y="828"/>
			<point x="101" y="850"/>
			<point x="140" y="850" type="curve" smooth="yes"/>
			<point x="177" y="850"/>
			<point x="200" y="828"/>
			<point x="200" y="790" type="curve" smooth="yes"/>
			<point x="200" y="752"/>
			<point x="177" y="730"/>
		</contour>
	</outline>
</glyph>
<glyph name="hungarumlautcomb" format="2">
	<advance width="0"/>
	<unicode hex="030B"/>
	<anchor x="153" y="700" name="_top"/>
	<anchor x="153" y="880" name="top"/>
	<outline>
		<contour>
			<point x="30" y="760" type="line"/>
			<point x="50" y="760" type="line" smooth="yes"/>
			<point x="122" y="760"/>
			<point x="156" y="793"/>
			<point x="156" y="880" type="curve"/>
			<point x="98" y="880" type="line"/>
			<point x="98" y="823"/>
			<point x="87" y="810"/>
			<point x="50" y="810" type="curve" smooth="yes"/>
			<point x="30" y="810" type="line"/>
		</contour>
		<contour>
			<point x="170" y="760" type="line"/>
			<point x="180" y="760" type="line" smooth="yes"/>
			<point x="243" y="760"/>
			<point x="276" y="794"/>
			<point x="276" y="880" type="curve"/>
			<point x="218" y="880" type="line"/>
			<point x="218" y="823"/>
			<point x="208" y="810"/>
			<point x="180" y="810" type="curve" smooth="yes"/>
			<point x="170" y="810" type="line"/>
		</contour>
	</outline>
</glyph>
<glyph name="commaaccentcomb" format="2">
	<advance width="0"/>
	<unicode hex="0326"/>
	<anchor x="108" y="0" name="_bottom"/>
	<anchor x="108" y="-200" name="bottom"/>
	<outline>
		<contour>
			<point x="40" y="-200" type="line"/>
			<point x="74" y="-200" type="line" smooth="yes"/>
			<point x="140" y="-200"/>
			<point x="175" y="-169"/>
			<point x="175" y="-110" type="curve" smooth="yes"/>
			<point x="175" y="-65" type="line"/>
			<point x="125" y="-65" type="line"/>
			<point x="125" y="-110" type="line" smooth="yes"/>
			<point x="125" y="-140"/>
			<point x="114" y="-150"/>
			<point x="74" y="-150" type="curve" smooth="yes"/>
			<point x="40" y="-150" type="line"/>
		</contour>
		<contour>
			<point x="105" y="-110" type="curve" smooth="yes"/>
			<point x="115" y="-110" type="line" smooth="yes"/>
			<point x="157" y="-110"/>
			<point x="175" y="-97"/>
			<point x="175" y="-65" type="curve" smooth="yes"/>
			<point x="175" y="-33"/>
			<point x="157" y="-20"/>
			<point x="115" y="-20" type="curve" smooth="yes"/>
			<point x="105" y="-20" type="line" smooth="yes"/>
			<point x="63" y="-20"/>
			<point x="45" y="-33"/>
			<point x="45" y="-65" type="curve" smooth="yes"/>
			<point x="45" y="-97"/>
			<point x="63" y="-110"/>
		</contour>
	</outline>
</glyph>
<glyph name="cedillacomb" format="2">
	<advance width="0"/>
	<unicode hex="0327"/>
	<anchor x="90" y="0" name="_bottom"/>
	<anchor x="90" y="-200" name="bottom"/>
	<outline>
		<contour>
			<point x="30" y="-200" type="line"/>
			<point x="70" y="-200" type="line" smooth="yes"/>
			<point x="148" y="-200"/>
			<point x="196" y="-167"/>
			<point x="196" y="-120" type="curve" smooth="yes"/>
			<point x="196" y="-76"/>
			<point x="167" y="-52"/>
			<point x="110" y="-52" type="curve" smooth="yes"/>
			<point x="91" y="-52" type="line"/>
			<point x="115" y="-75" type="line"/>
			<point x="115" y="30" type="line"/>
			<point x="65" y="30" type="line"/>
			<point x="65" y="-100" type="line"/>
			<point x="104" y="-100" type="line" smooth="yes"/>
			<point x="129" y="-100"/>
			<point x="136" y="-107"/>
			<point x="136" y="-122" type="curve" smooth="yes"/>
			<point x="136" y="-141"/>
			<point x="119" y="-150"/>
			<point x="70" y="-150" type="curve" smooth="yes"/>
			<point x="30" y="-150" type="line"/>
		</contour>
	</outline>
</glyph>
<glyph name="wacute" format="2">
  <advance width="894"/>
  <unicode hex="1E83"/>
  <outline>
    <contour>
      <point x="-5" y="-213" type="line"/>
      <point x="899" y="-213" type="line"/>
      <point x="899" y="920" type="line"/>
      <point x="-5" y="920" type="line"/>
    </contour>
  </outline>
</glyph>
<glyph name="Germandbls" format="2">
  <advance width="704"/>
  <unicode hex="1E9E"/>
  <outline>
    <contour>
      <point x="-5" y="-213" type="line"/>
      <point x="709" y="-213" type="line"/>
      <point x="709" y="920" type="line"/>
      <point x="-5" y="920" type="line"/>
    </contour>
  </outline>
</glyph>
<glyph name="endash" format="2">
  <advance width="520"/>
  <unicode hex="2013"/>
  <outline>
    <contour>
      <point x="-5" y="-213" type="line"/>
      <point x="525" y="-213" type="line"/>
      <point x="525" y="920" type="line"/>
      <point x="-5" y="920" type="line"/>
    </contour>
  </outline>
</glyph>
<glyph name="quotedblright" format="2">
  <advance width="390"/>
  <unicode hex="201D"/>
  <outline>
    <contour>
      <point x="-5" y="-213" type="line"/>
      <point x="395" y="-213" type="line"/>
      <point x="395" y="920" type="line"/>
      <point x="-5" y="920" type="line"/>
    </contour>
  </outline>
</glyph>
<glyph name="quotedblbase" format="2">
  <advance width="390"/>
  <unicode hex="201E"/>
  <outline>
    <contour>
      <point x="-5" y="-213" type="line"/>
      <point x="395" y="-213" type="line"/>
      <point x="395" y="920" type="line"/>
      <point x="-5" y="920" type="line"/>
    </contour>
  </outline>
</glyph>
<glyph name="bullet" format="2">
  <advance width="360"/>
  <unicode hex="2022"/>
  <outline>
    <contour>
      <point x="-5" y="-213" type="line"/>
      <point x="365" y="-213" type="line"/>
      <point x="365" y="920" type="line"/>
      <point x="-5" y="920" type="line"/>
    </contour>
  </outline>
</glyph>
<glyph name="Kcommaaccent.ss01" format="2">
  <advance width="625"/>
  <outline>
    <contour>
      <point x="-5" y="-213" type="line"/>
      <point x="630" y="-213" type="line"/>
      <point x="630" y="920" type="line"/>
      <point x="-5" y="920" type="line"/>
    </contour>
  </outline>
</glyph>
<glyph name="banner1.left" format="2">
  <advance width="472"/>
  <outline>
    <contour>
      <point x="477.0" y="-213.0" type="line"/>
      <point x="477.0" y="920" type="line"/>
      <point x="467.0" y="920" type="line"/>
      <point x="24.0" y="353" type="line"/>
      <point x="467.0" y="-213.0" type="line"/>
    </contour>
  </outline>
</glyph>
<glyph name="banner2.right" format="2">
  <advance width="236"/>
  <outline>
    <contour>
      <point x="0" y="-213" type="line"/>
      <point x="117" y="-213" type="line"/>
      <point x="173" y="-71"/>
      <point x="217" y="84"/>
      <point x="217" y="353" type="curve" smooth="yes"/>
      <point x="217" y="621"/>
      <point x="173" y="778"/>
      <point x="117" y="920" type="curve"/>
      <point x="0" y="920" type="line"/>
    </contour>
  </outline>
</glyph>
<glyph name="banner3.left" format="2">
  <advance width="332"/>
  <outline>
    <contour>
      <point x="337.0" y="-212" type="line"/>
      <point x="337.0" y="920" type="line"/>
      <point x="288.0" y="920" type="line"/>
      <point x="249.0" y="773" type="line"/>
      <point x="201.0" y="773"/>
      <point x="178.0" y="744"/>
      <point x="178.0" y="652" type="curve" smooth="yes"/>
      <point x="178.0" y="606"/>
      <point x="175.0" y="548"/>
      <point x="125.0" y="548" type="curve"/>
      <point x="125.0" y="494" type="line"/>
      <point x="56.0" y="494"/>
      <point x="24.0" y="409"/>
      <point x="24.0" y="354" type="curve" smooth="yes"/>
      <point x="24.0" y="297"/>
      <point x="56.0" y="213"/>
      <point x="125.0" y="213" type="curve"/>
      <point x="125.0" y="159" type="line"/>
      <point x="175.0" y="159"/>
      <point x="178.0" y="101"/>
      <point x="178.0" y="55" type="curve" smooth="yes"/>
      <point x="178.0" y="-37"/>
      <point x="201.0" y="-66"/>
      <point x="249.0" y="-66" type="curve"/>
      <point x="288.0" y="-212" type="line"/>
    </contour>
  </outline>
</glyph>
<glyph name="banner4.left" format="2">
  <advance width="280"/>
  <outline>
    <contour>
      <point x="285.0" y="-213" type="line"/>
      <point x="285.0" y="920" type="line"/>
      <point x="256.0" y="920" type="line"/>
      <point x="256.0" y="881" type="line"/>
      <point x="163.0" y="881"/>
      <point x="63.0" y="807"/>
      <point x="63.0" y="698" type="curve"/>
      <point x="24.0" y="698" type="line"/>
      <point x="24.0" y="9" type="line"/>
      <point x="63.0" y="9" type="line"/>
      <point x="63.0" y="-101"/>
      <point x="163.0" y="-174"/>
      <point x="256.0" y="-174" type="curve"/>
      <point x="256.0" y="-213" type="line"/>
    </contour>
  </outline>
</glyph>
<glyph name="banner4.right" format="2">
  <advance width="280"/>
  <outline>
    <contour>
      <point x="0.0" y="-213.0" type="line"/>
      <point x="29.0" y="-213.0" type="line"/>
      <point x="29.0" y="-174.0" type="line"/>
      <point x="122.0" y="-174.0"/>
      <point x="222.0" y="-101.0"/>
      <point x="222.0" y="9.0" type="curve"/>
      <point x="261.0" y="9.0" type="line"/>
      <point x="261.0" y="698.0" type="line"/>
      <point x="222.0" y="698.0" type="line"/>
      <point x="222.0" y="807.0"/>
      <point x="122.0" y="881.0"/>
      <point x="29.0" y="881.0" type="curve"/>
      <point x="29.0" y="920.0" type="line"/>
      <point x="0.0" y="920.0" type="line"/>
    </contour>
  </outline>
</glyph>
<glyph name="banner6.left" format="2">
  <advance width="159"/>
  <outline>
    <contour>
      <point x="164.0" y="-213" type="line"/>
      <point x="164.0" y="920" type="line"/>
      <point x="127.0" y="920" type="line"/>
      <point x="24.0" y="802" type="line"/>
      <point x="24.0" y="-96" type="line"/>
      <point x="127.0" y="-213" type="line"/>
    </contour>
  </outline>
</glyph>
<glyph name="banner6.right" format="2">
  <advance width="159"/>
  <outline>
    <contour>
      <point x="0.0" y="-213.0" type="line"/>
      <point x="37.0" y="-213.0" type="line"/>
      <point x="140.0" y="-96.0" type="line"/>
      <point x="140.0" y="802.0" type="line"/>
      <point x="37.0" y="920.0" type="line"/>
      <point x="0.0" y="920.0" type="line"/>
    </contour>
  </outline>
</glyph>
<glyph name="banner7.left" format="2">
  <advance width="198"/>
  <outline>
    <contour>
      <point x="203" y="-214.0" type="line"/>
      <point x="203" y="920.0" type="line"/>
      <point x="195" y="920.0" type="line" smooth="yes"/>
      <point x="53" y="920.0"/>
      <point x="139" y="667.0"/>
      <point x="24" y="667.0" type="curve"/>
      <point x="24" y="39.0" type="line"/>
      <point x="139" y="39.0"/>
      <point x="53" y="-214.0"/>
      <point x="195" y="-214.0" type="curve" smooth="yes"/>
    </contour>
  </outline>
</glyph>
<glyph name="banner7.right" format="2">
  <advance width="198"/>
  <outline>
    <contour>
      <point x="1.0" y="-214.0" type="line"/>
      <point x="9.0" y="-214.0" type="line" smooth="yes"/>
      <point x="151.0" y="-214.0"/>
      <point x="65.0" y="39.0"/>
      <point x="180.0" y="39.0" type="curve"/>
      <point x="180.0" y="667.0" type="line"/>
      <point x="65.0" y="667.0"/>
      <point x="151" y="920"/>
      <point x="9.0" y="920.0" type="curve" smooth="yes"/>
      <point x="1.0" y="920.0" type="line"/>
    </contour>
  </outline>
</glyph>
<glyph name="null" format="2">
  <advance width="600"/>
  <outline>
    <contour>
      <point x="-5" y="-213" type="line"/>
      <point x="605" y="-213" type="line"/>
      <point x="605" y="920" type="line"/>
      <point x="-5" y="920" type="line"/>
    </contour>
  </outline>
</glyph>
<glyph name="one.1" format="2">
  <advance width="427"/>
  <outline>
    <contour>
      <point x="-5" y="-213" type="line"/>
      <point x="433" y="-213" type="line"/>
      <point x="433" y="920" type="line"/>
      <point x="-5" y="920" type="line"/>
    </contour>
  </outline>
</glyph>
<glyph name="two.1" format="2">
  <advance width="505"/>
  <outline>
    <contour>
      <point x="-5" y="-213" type="line"/>
      <point x="514" y="-213" type="line"/>
      <point x="514" y="920" type="line"/>
      <point x="-5" y="920" type="line"/>
    </contour>
  </outline>
</glyph>
